<mxfile host="app.diagrams.net" modified="2023-02-23T11:08:24.254Z" agent="5.0 (Macintosh; Intel Mac OS X 10_15_7) AppleWebKit/537.36 (KHTML, like Gecko) Chrome/110.0.0.0 Safari/537.36" etag="xg54ClpbcOHQ3gykqmkS" version="20.8.23" type="github">
  <diagram name="Page-1" id="y0ivTk51DPNjO0dVRG_-">
    <mxGraphModel dx="1908" dy="1296" grid="1" gridSize="10" guides="1" tooltips="1" connect="1" arrows="1" fold="1" page="1" pageScale="1" pageWidth="850" pageHeight="1100" math="0" shadow="0">
      <root>
        <mxCell id="0" />
        <mxCell id="1" parent="0" />
        <mxCell id="Qtx-Q-_FdvOajwqkJ-SO-1" value="End" style="ellipse;whiteSpace=wrap;html=1;aspect=fixed;fillColor=#f8cecc;strokeColor=#b85450;fontStyle=1;strokeWidth=2;" vertex="1" parent="1">
          <mxGeometry x="115" y="900" width="70" height="70" as="geometry" />
        </mxCell>
        <mxCell id="Qtx-Q-_FdvOajwqkJ-SO-2" value="" style="edgeStyle=orthogonalEdgeStyle;rounded=0;orthogonalLoop=1;jettySize=auto;html=1;" edge="1" parent="1" target="Qtx-Q-_FdvOajwqkJ-SO-12">
          <mxGeometry relative="1" as="geometry">
            <mxPoint x="150.0000000000001" y="159.9999999999999" as="sourcePoint" />
          </mxGeometry>
        </mxCell>
        <mxCell id="Qtx-Q-_FdvOajwqkJ-SO-11" value="" style="edgeStyle=orthogonalEdgeStyle;rounded=0;orthogonalLoop=1;jettySize=auto;html=1;" edge="1" parent="1" source="Qtx-Q-_FdvOajwqkJ-SO-12" target="Qtx-Q-_FdvOajwqkJ-SO-20">
          <mxGeometry relative="1" as="geometry" />
        </mxCell>
        <mxCell id="Qtx-Q-_FdvOajwqkJ-SO-12" value="Staff membuka tab&lt;br&gt;brace" style="rounded=1;whiteSpace=wrap;html=1;fontSize=12;glass=0;strokeWidth=1;shadow=0;" vertex="1" parent="1">
          <mxGeometry x="77.5" y="190" width="145" height="70" as="geometry" />
        </mxCell>
        <mxCell id="Qtx-Q-_FdvOajwqkJ-SO-44" value="" style="edgeStyle=orthogonalEdgeStyle;rounded=0;orthogonalLoop=1;jettySize=auto;html=1;" edge="1" parent="1" source="Qtx-Q-_FdvOajwqkJ-SO-18" target="Qtx-Q-_FdvOajwqkJ-SO-12">
          <mxGeometry relative="1" as="geometry" />
        </mxCell>
        <mxCell id="Qtx-Q-_FdvOajwqkJ-SO-18" value="start" style="ellipse;whiteSpace=wrap;html=1;fillColor=#d5e8d4;strokeColor=#82b366;strokeWidth=2;" vertex="1" parent="1">
          <mxGeometry x="110" y="70" width="80" height="80" as="geometry" />
        </mxCell>
        <mxCell id="Qtx-Q-_FdvOajwqkJ-SO-39" value="" style="edgeStyle=orthogonalEdgeStyle;rounded=0;orthogonalLoop=1;jettySize=auto;html=1;" edge="1" parent="1" source="Qtx-Q-_FdvOajwqkJ-SO-20" target="Qtx-Q-_FdvOajwqkJ-SO-35">
          <mxGeometry relative="1" as="geometry" />
        </mxCell>
        <mxCell id="Qtx-Q-_FdvOajwqkJ-SO-20" value="daftar nama client yang&lt;br&gt;memesan brace" style="shape=parallelogram;perimeter=parallelogramPerimeter;whiteSpace=wrap;html=1;fixedSize=1;strokeWidth=1;fillColor=#fff2cc;strokeColor=#d6b656;" vertex="1" parent="1">
          <mxGeometry x="57.5" y="300" width="185" height="50" as="geometry" />
        </mxCell>
        <mxCell id="Qtx-Q-_FdvOajwqkJ-SO-66" value="" style="edgeStyle=orthogonalEdgeStyle;rounded=0;orthogonalLoop=1;jettySize=auto;html=1;" edge="1" parent="1" source="Qtx-Q-_FdvOajwqkJ-SO-34" target="Qtx-Q-_FdvOajwqkJ-SO-57">
          <mxGeometry relative="1" as="geometry" />
        </mxCell>
        <mxCell id="Qtx-Q-_FdvOajwqkJ-SO-34" value="Staff melihat data client" style="ellipse;whiteSpace=wrap;html=1;fillColor=#d5e8d4;strokeColor=#82b366;strokeWidth=2;" vertex="1" parent="1">
          <mxGeometry x="365.5" y="70" width="120" height="80" as="geometry" />
        </mxCell>
        <mxCell id="Qtx-Q-_FdvOajwqkJ-SO-37" value="" style="edgeStyle=orthogonalEdgeStyle;rounded=0;orthogonalLoop=1;jettySize=auto;html=1;" edge="1" parent="1" source="Qtx-Q-_FdvOajwqkJ-SO-35" target="Qtx-Q-_FdvOajwqkJ-SO-36">
          <mxGeometry relative="1" as="geometry" />
        </mxCell>
        <mxCell id="Qtx-Q-_FdvOajwqkJ-SO-35" value="Staff menekan nama&lt;br&gt;client yang ingin diupload" style="rounded=1;whiteSpace=wrap;html=1;fontSize=12;glass=0;strokeWidth=1;shadow=0;" vertex="1" parent="1">
          <mxGeometry x="77.5" y="390" width="145" height="70" as="geometry" />
        </mxCell>
        <mxCell id="Qtx-Q-_FdvOajwqkJ-SO-41" value="" style="edgeStyle=orthogonalEdgeStyle;rounded=0;orthogonalLoop=1;jettySize=auto;html=1;" edge="1" parent="1" source="Qtx-Q-_FdvOajwqkJ-SO-36" target="Qtx-Q-_FdvOajwqkJ-SO-40">
          <mxGeometry relative="1" as="geometry" />
        </mxCell>
        <mxCell id="Qtx-Q-_FdvOajwqkJ-SO-36" value="data dan informasi&lt;br&gt;brace pesanan client" style="shape=parallelogram;perimeter=parallelogramPerimeter;whiteSpace=wrap;html=1;fixedSize=1;strokeWidth=1;fillColor=#fff2cc;strokeColor=#d6b656;" vertex="1" parent="1">
          <mxGeometry x="57.5" y="500" width="185" height="50" as="geometry" />
        </mxCell>
        <mxCell id="Qtx-Q-_FdvOajwqkJ-SO-43" value="" style="edgeStyle=orthogonalEdgeStyle;rounded=0;orthogonalLoop=1;jettySize=auto;html=1;" edge="1" parent="1" source="Qtx-Q-_FdvOajwqkJ-SO-40" target="Qtx-Q-_FdvOajwqkJ-SO-42">
          <mxGeometry relative="1" as="geometry" />
        </mxCell>
        <mxCell id="Qtx-Q-_FdvOajwqkJ-SO-40" value="Staff menekan tombol&lt;br&gt;upload foto" style="rounded=1;whiteSpace=wrap;html=1;fontSize=12;glass=0;strokeWidth=1;shadow=0;" vertex="1" parent="1">
          <mxGeometry x="77.5" y="590" width="145" height="70" as="geometry" />
        </mxCell>
        <mxCell id="Qtx-Q-_FdvOajwqkJ-SO-46" value="" style="edgeStyle=orthogonalEdgeStyle;rounded=0;orthogonalLoop=1;jettySize=auto;html=1;" edge="1" parent="1" source="Qtx-Q-_FdvOajwqkJ-SO-42" target="Qtx-Q-_FdvOajwqkJ-SO-45">
          <mxGeometry relative="1" as="geometry" />
        </mxCell>
        <mxCell id="Qtx-Q-_FdvOajwqkJ-SO-42" value="staff mengupload foto&lt;br&gt;sesuai kategori" style="shape=parallelogram;perimeter=parallelogramPerimeter;whiteSpace=wrap;html=1;fixedSize=1;strokeWidth=1;fillColor=#fff2cc;strokeColor=#d6b656;" vertex="1" parent="1">
          <mxGeometry x="57.5" y="700" width="185" height="50" as="geometry" />
        </mxCell>
        <mxCell id="Qtx-Q-_FdvOajwqkJ-SO-47" value="" style="edgeStyle=orthogonalEdgeStyle;rounded=0;orthogonalLoop=1;jettySize=auto;html=1;" edge="1" parent="1" source="Qtx-Q-_FdvOajwqkJ-SO-45" target="Qtx-Q-_FdvOajwqkJ-SO-1">
          <mxGeometry relative="1" as="geometry" />
        </mxCell>
        <mxCell id="Qtx-Q-_FdvOajwqkJ-SO-45" value="pemberitahuan aksi dan&lt;br&gt;respon servernya" style="shape=parallelogram;perimeter=parallelogramPerimeter;whiteSpace=wrap;html=1;fixedSize=1;strokeWidth=1;fillColor=#fff2cc;strokeColor=#d6b656;" vertex="1" parent="1">
          <mxGeometry x="57.5" y="800" width="185" height="50" as="geometry" />
        </mxCell>
        <mxCell id="Qtx-Q-_FdvOajwqkJ-SO-48" value="End" style="ellipse;whiteSpace=wrap;html=1;aspect=fixed;fillColor=#f8cecc;strokeColor=#b85450;fontStyle=1;strokeWidth=2;" vertex="1" parent="1">
          <mxGeometry x="390.5" y="700" width="70" height="70" as="geometry" />
        </mxCell>
        <mxCell id="Qtx-Q-_FdvOajwqkJ-SO-56" value="" style="edgeStyle=orthogonalEdgeStyle;rounded=0;orthogonalLoop=1;jettySize=auto;html=1;" edge="1" parent="1" source="Qtx-Q-_FdvOajwqkJ-SO-57" target="Qtx-Q-_FdvOajwqkJ-SO-59">
          <mxGeometry relative="1" as="geometry" />
        </mxCell>
        <mxCell id="Qtx-Q-_FdvOajwqkJ-SO-57" value="Staff menekan tombol&lt;br&gt;&quot;brace&quot;" style="rounded=1;whiteSpace=wrap;html=1;fontSize=12;glass=0;strokeWidth=1;shadow=0;" vertex="1" parent="1">
          <mxGeometry x="353" y="190" width="145" height="70" as="geometry" />
        </mxCell>
        <mxCell id="Qtx-Q-_FdvOajwqkJ-SO-58" value="" style="edgeStyle=orthogonalEdgeStyle;rounded=0;orthogonalLoop=1;jettySize=auto;html=1;" edge="1" parent="1" source="Qtx-Q-_FdvOajwqkJ-SO-59" target="Qtx-Q-_FdvOajwqkJ-SO-61">
          <mxGeometry relative="1" as="geometry" />
        </mxCell>
        <mxCell id="Qtx-Q-_FdvOajwqkJ-SO-59" value="data dan informasi&lt;br&gt;brace pesanan client" style="shape=parallelogram;perimeter=parallelogramPerimeter;whiteSpace=wrap;html=1;fixedSize=1;strokeWidth=1;fillColor=#fff2cc;strokeColor=#d6b656;" vertex="1" parent="1">
          <mxGeometry x="333" y="300" width="185" height="50" as="geometry" />
        </mxCell>
        <mxCell id="Qtx-Q-_FdvOajwqkJ-SO-60" value="" style="edgeStyle=orthogonalEdgeStyle;rounded=0;orthogonalLoop=1;jettySize=auto;html=1;" edge="1" parent="1" source="Qtx-Q-_FdvOajwqkJ-SO-61" target="Qtx-Q-_FdvOajwqkJ-SO-63">
          <mxGeometry relative="1" as="geometry" />
        </mxCell>
        <mxCell id="Qtx-Q-_FdvOajwqkJ-SO-61" value="Staff menekan tombol&lt;br&gt;upload foto" style="rounded=1;whiteSpace=wrap;html=1;fontSize=12;glass=0;strokeWidth=1;shadow=0;" vertex="1" parent="1">
          <mxGeometry x="353" y="390" width="145" height="70" as="geometry" />
        </mxCell>
        <mxCell id="Qtx-Q-_FdvOajwqkJ-SO-62" value="" style="edgeStyle=orthogonalEdgeStyle;rounded=0;orthogonalLoop=1;jettySize=auto;html=1;" edge="1" parent="1" source="Qtx-Q-_FdvOajwqkJ-SO-63" target="Qtx-Q-_FdvOajwqkJ-SO-65">
          <mxGeometry relative="1" as="geometry" />
        </mxCell>
        <mxCell id="Qtx-Q-_FdvOajwqkJ-SO-63" value="staff mengupload foto&lt;br&gt;sesuai kategori" style="shape=parallelogram;perimeter=parallelogramPerimeter;whiteSpace=wrap;html=1;fixedSize=1;strokeWidth=1;fillColor=#fff2cc;strokeColor=#d6b656;" vertex="1" parent="1">
          <mxGeometry x="333" y="500" width="185" height="50" as="geometry" />
        </mxCell>
        <mxCell id="Qtx-Q-_FdvOajwqkJ-SO-64" value="" style="edgeStyle=orthogonalEdgeStyle;rounded=0;orthogonalLoop=1;jettySize=auto;html=1;" edge="1" parent="1" source="Qtx-Q-_FdvOajwqkJ-SO-65" target="Qtx-Q-_FdvOajwqkJ-SO-48">
          <mxGeometry relative="1" as="geometry" />
        </mxCell>
        <mxCell id="Qtx-Q-_FdvOajwqkJ-SO-65" value="pemberitahuan aksi dan&lt;br&gt;respon servernya" style="shape=parallelogram;perimeter=parallelogramPerimeter;whiteSpace=wrap;html=1;fixedSize=1;strokeWidth=1;fillColor=#fff2cc;strokeColor=#d6b656;" vertex="1" parent="1">
          <mxGeometry x="333" y="600" width="185" height="50" as="geometry" />
        </mxCell>
      </root>
    </mxGraphModel>
  </diagram>
</mxfile>
